<svg
   width="360"
   height="640"
   viewBox="0 0 95.249813 169.333"
   version="1.1"
   id="svg6478"
   inkscape:version="1.2.2 (732a01da63, 2022-12-09)"
   sodipodi:docname="shower-grass.svg"
   xmlns:inkscape="http://www.inkscape.org/namespaces/inkscape"
   xmlns:sodipodi="http://sodipodi.sourceforge.net/DTD/sodipodi-0.dtd"
   xmlns="http://www.w3.org/2000/svg"
   xmlns:svg="http://www.w3.org/2000/svg">
  <sodipodi:namedview
     id="namedview6480"
     pagecolor="#ffffff"
     bordercolor="#000000"
     borderopacity="0.25"
     inkscape:showpageshadow="2"
     inkscape:pageopacity="0.0"
     inkscape:pagecheckerboard="false"
     inkscape:deskcolor="#d1d1d1"
     inkscape:document-units="mm"
     showgrid="false"
     inkscape:zoom="0.84096521"
     inkscape:cx="271.11704"
     inkscape:cy="334.73442"
     inkscape:window-width="1440"
     inkscape:window-height="890"
     inkscape:window-x="-6"
     inkscape:window-y="-6"
     inkscape:window-maximized="1"
     inkscape:current-layer="layer1" />
  <defs
     id="defs6475">
    <inkscape:path-effect
       effect="bend_path"
       id="path-effect33680"
       is_visible="true"
       lpeversion="1"
       bendpath="M 4.5416047,160.34056 113.09287,164.19523"
       prop_scale="1"
       scale_y_rel="false"
       vertical="false"
       hide_knot="false"
       bendpath-nodetypes="cc" />
    <inkscape:path-effect
       effect="bend_path"
       id="path-effect25107"
       is_visible="true"
       lpeversion="1"
       bendpath="m 46.126795,50.428265 c 7.7836,1.294972 15.38154,1.661646 22.573816,0"
       prop_scale="1"
       scale_y_rel="false"
       vertical="false"
       hide_knot="false"
       bendpath-nodetypes="cc" />
    <inkscape:path-effect
       effect="bend_path"
       id="path-effect25109"
       is_visible="true"
       lpeversion="1"
       bendpath="m 7.845424,86.095494 c 8.297391,-1.545571 16.04996,-2.001499 22.573816,0"
       prop_scale="1"
       scale_y_rel="false"
       vertical="false"
       hide_knot="false"
       bendpath-nodetypes="cc" />
    <inkscape:path-effect
       effect="bend_path"
       id="path-effect25444"
       is_visible="true"
       lpeversion="1"
       bendpath="M 37.869789,48.948423 H 52.330438"
       prop_scale="1"
       scale_y_rel="false"
       vertical="false"
       hide_knot="false" />
    <inkscape:path-effect
       effect="bend_path"
       id="path-effect25107-7"
       is_visible="true"
       lpeversion="1"
       bendpath="m 46.126795,50.428265 c 7.7836,1.294972 15.38154,1.661646 22.573816,0"
       prop_scale="1"
       scale_y_rel="false"
       vertical="false"
       hide_knot="false"
       bendpath-nodetypes="cc" />
    <inkscape:path-effect
       effect="bend_path"
       id="path-effect25109-9"
       is_visible="true"
       lpeversion="1"
       bendpath="m 7.845424,86.095494 c 8.297391,-1.545571 16.04996,-2.001499 22.573816,0"
       prop_scale="1"
       scale_y_rel="false"
       vertical="false"
       hide_knot="false"
       bendpath-nodetypes="cc" />
    <inkscape:path-effect
       effect="bend_path"
       id="path-effect25444-9"
       is_visible="true"
       lpeversion="1"
       bendpath="M 37.869789,48.948423 H 52.330438"
       prop_scale="1"
       scale_y_rel="false"
       vertical="false"
       hide_knot="false" />
  </defs>
  <g
     inkscape:label="grass"
     inkscape:groupmode="layer"
     id="layer1">
    <path
       id="path14571"
       style="font-variation-settings:normal;fill:#4ab563;fill-opacity:1;stroke:none;stroke-width:0.0850911;stroke-linecap:butt;stroke-linejoin:miter;stroke-miterlimit:4;stroke-dasharray:none;stroke-dashoffset:0;stroke-opacity:1;stop-color:#000000"
       d="m 88.479403,138.86721 c -2.204286,7.77022 -1.753697,15.74602 -2.792057,23.66205 -0.04338,-0.252 -0.08365,-0.50562 -0.123331,-0.75934 -0.350218,-3.16352 -0.290936,-6.45133 0.344914,-9.69226 -0.455064,1.59583 -0.699476,3.20621 -0.858188,4.82382 -0.177285,-3.29424 -0.0083,-6.6632 0.612042,-9.99338 -1.149421,4.2455 -1.196123,8.57062 -1.498377,12.89563 -0.06955,-1.30512 -0.199019,-2.60652 -0.515835,-3.90141 0.338622,2.14199 0.338754,4.29854 0.09416,6.38592 -0.147808,-2.73091 -0.08099,-5.4586 -0.421161,-8.16881 0.294596,-2.22763 0.772685,-4.45153 1.463066,-6.63529 -0.720462,1.74866 -1.23477,3.56782 -1.647805,5.41415 -0.06464,-0.36549 -0.135838,-0.73083 -0.220561,-1.09556 0.06671,0.44449 0.121417,0.88967 0.167341,1.33479 -0.390563,1.78548 -0.690581,3.59479 -0.990732,5.39093 -0.15217,-5.78088 0.477992,-11.74744 2.204068,-17.49808 -1.486443,3.79996 -2.254633,7.85803 -2.914875,11.91017 -0.07759,-0.53253 -0.177462,-1.06369 -0.312674,-1.59246 0.117832,0.70209 0.189903,1.40484 0.230284,2.10662 -0.3663,2.27533 -0.707814,4.54572 -1.130436,6.76383 0.02171,-4.71706 0.753787,-9.54731 -0.386363,-14.24354 0.577918,3.62695 0.326924,7.26399 -0.265595,10.80032 -0.134173,-2.8256 -0.351906,-5.6421 -1.090007,-8.43364 0.799704,4.54979 0.688148,9.15983 -0.04247,13.52644 -0.333394,-3.49587 -0.36641,-6.99482 -0.562405,-10.48016 0.133018,-0.86435 0.293461,-1.727 0.490249,-2.58568 -0.201669,0.62787 -0.375932,1.26528 -0.529652,1.90965 -0.18116,-2.87487 -0.496139,-5.73947 -1.210267,-8.58419 0.278745,1.67035 0.463483,3.34682 0.568544,5.02079 -1.243506,4.79635 -1.08323,9.65675 -1.384259,14.52083 -0.376094,-3.10915 -0.375619,-6.33624 0.15864,-9.53218 -0.513385,2.0091 -0.707101,4.0948 -0.814691,6.18658 -0.108751,-1.68545 -0.275124,-3.36582 -0.643771,-5.03389 -0.0039,-0.0587 -0.006,-0.11792 -0.0097,-0.17673 0.134071,-1.25842 0.331829,-2.51631 0.601296,-3.76694 -0.271199,0.88497 -0.484395,1.77442 -0.662705,2.66719 -0.171721,-3.79336 0.01215,-7.65135 0.6407,-11.48229 -1.61363,6.49877 -1.303041,13.08938 -1.763458,19.68088 0.03624,-0.81904 0.03506,-1.64119 -0.05118,-2.47142 0.01451,0.70656 -0.01288,1.4092 -0.07215,2.10603 -0.02703,-1.3494 0.05827,-2.71442 0.277364,-4.0734 -0.391635,1.57975 -0.508542,3.17956 -0.573149,4.77977 -0.220062,-3.17906 -0.252225,-6.35861 -0.660659,-9.51254 0.07763,-0.86826 0.185007,-1.73692 0.325469,-2.60411 -0.164454,0.65844 -0.300517,1.31769 -0.413999,1.97808 -0.02638,-0.18019 -0.0542,-0.36034 -0.08341,-0.54034 0.138172,-1.15132 0.322188,-2.30206 0.559845,-3.44738 -0.272985,0.91362 -0.491879,1.83154 -0.677545,2.75171 -0.119096,-0.64522 -0.258764,-1.28929 -0.424234,-1.93166 0.137817,0.79186 0.247274,1.58562 0.335191,2.37977 -0.596357,3.16264 -0.773655,6.35852 -0.992266,9.55896 -0.112432,-1.19272 -0.281606,-2.37899 -0.605389,-3.54676 0.364766,1.92419 0.461055,3.86735 0.342867,5.76704 -0.492981,-3.15942 -0.567732,-6.47687 -0.06397,-9.76783 -0.639679,2.71774 -0.678155,5.48087 -0.766587,8.23072 -0.089,-2.36611 0.06614,-4.77438 0.533746,-7.15778 -0.222979,0.78195 -0.394685,1.56737 -0.531188,2.35538 0.192278,-2.63428 0.628433,-5.27975 1.351507,-7.88079 -1.022494,2.75762 -1.549039,5.63356 -1.976343,8.52171 -0.220315,-2.14719 -0.321305,-4.3273 -0.288109,-6.52043 0.101251,-0.35744 0.207455,-0.7139 0.319838,-1.06938 -0.110381,0.26791 -0.214619,0.53829 -0.315744,0.80933 0.04447,-2.22032 0.227387,-4.453 0.569568,-6.67812 -0.64515,2.72066 -0.930632,5.45524 -1.085915,8.19798 -0.190456,0.6117 -0.362904,1.22881 -0.52044,1.85074 -0.07682,-0.38177 -0.164252,-0.76297 -0.271735,-1.14317 0.08939,0.45993 0.155449,0.9202 0.210837,1.3806 -0.188532,0.76312 -0.356638,1.53247 -0.510716,2.30481 -0.13499,-1.13374 -0.325998,-2.26035 -0.619207,-3.37419 0.25409,1.41178 0.399034,2.83133 0.451356,4.24421 -0.320998,1.71443 -0.591881,3.43653 -0.887359,5.13742 -0.09897,-1.02297 -0.176472,-2.0532 -0.225678,-3.09091 0.02424,-1.018 0.01781,-2.03583 -0.06652,-3.04924 0.01002,-4.66822 0.556184,-9.41838 1.780857,-14.05846 -2.188247,6.21598 -2.521123,12.89932 -3.582697,19.31609 -0.101725,-4.74749 0.506792,-9.54338 -0.753282,-14.23817 0.501045,2.71524 0.540979,5.44197 0.315743,8.1355 -0.06995,-0.69748 -0.157318,-1.39405 -0.266617,-2.08936 0.0511,-0.4976 0.109959,-0.99511 0.183716,-1.4925 -0.09119,0.38819 -0.167795,0.77648 -0.238983,1.1652 -0.138554,-0.82532 -0.307337,-1.64878 -0.524535,-2.47023 0.183218,1.04239 0.318221,2.08745 0.409393,3.13256 -0.418249,2.6652 -0.437512,5.34258 -0.493318,8.02541 -0.133946,0.67081 -0.275277,1.33543 -0.420651,1.99654 -0.402164,-3.93328 -0.468237,-7.87547 -1.126853,-11.77032 0.09065,-0.87793 0.207338,-1.75604 0.35873,-2.6321 -0.180163,0.68891 -0.330127,1.37897 -0.457496,2.07033 -0.10685,-0.57873 -0.228053,-1.15662 -0.366407,-1.73291 0.0332,-0.27678 0.06656,-0.55351 0.10593,-0.83015 -0.05115,0.22781 -0.09476,0.45577 -0.139705,0.68376 -0.09401,-0.38325 -0.194541,-0.7659 -0.304996,-1.14793 0.09364,0.46667 0.175798,0.93431 0.252799,1.40203 -0.496371,2.64762 -0.600209,5.3076 -0.659634,7.97364 -0.168164,-1.36729 -0.408096,-2.72748 -0.797292,-4.07459 0.621139,3.09465 0.732753,6.22837 0.445214,9.26081 -0.147005,-2.80187 -0.257518,-5.59781 -1.006082,-8.35687 0.473357,2.58226 0.577109,5.18991 0.394041,7.7356 -0.424398,-2.21459 -0.714691,-4.48572 -0.847443,-6.78822 -0.01385,-1.96274 0.112875,-3.94243 0.399157,-5.91819 -0.207138,0.89581 -0.362332,1.7941 -0.48257,2.69399 0.0161,-2.02259 0.15914,-4.05884 0.445214,-6.09077 -1.00369,4.50005 -0.94376,9.02871 -1.051116,13.56989 -0.16559,1.20696 -0.222229,2.42101 -0.263547,3.63422 -0.35933,-2.90862 -0.534935,-5.82388 -0.73486,-8.73298 0.0697,-1.33526 0.206931,-2.67443 0.423211,-4.00972 -0.220333,0.88217 -0.386702,1.76674 -0.518904,2.65232 -0.28782,-3.89568 -0.6898,-7.77574 -1.740944,-11.60488 1.137693,5.97159 1.249632,12.0273 0.586456,17.83966 -0.279392,-3.01839 -0.233852,-6.10927 0.209813,-9.19238 -0.576749,2.50788 -0.751845,5.02461 -0.828508,7.54754 -0.0036,-0.0132 -0.0065,-0.0266 -0.01023,-0.0399 0.0035,0.0186 0.0062,0.0374 0.0097,0.0559 -0.0098,0.32558 -0.01838,0.65137 -0.02559,0.97714 -0.08217,-1.20255 -0.164231,-2.40473 -0.273269,-3.60387 0.238077,-1.96983 0.61576,-3.93845 1.156022,-5.88189 -0.554231,1.49473 -0.963608,3.02428 -1.29061,4.5715 -0.205564,-1.84245 -0.499719,-3.67601 -0.997381,-5.49032 0.440487,2.31153 0.668242,4.63997 0.713877,6.95008 -0.207247,1.14699 -0.382103,2.30048 -0.545516,3.4545 -0.237863,-3.21256 -0.525085,-6.40969 -1.386305,-9.5786 0.04312,-2.00421 0.194614,-4.01813 0.471313,-6.02947 -1.368533,6.23374 -0.943725,12.55453 -1.272698,18.85132 -0.570856,-3.77875 -0.640481,-7.7095 -0.07471,-11.62868 -0.609161,2.64678 -0.773526,5.30402 -0.847954,7.96768 -0.193358,-1.26856 -0.336494,-2.55322 -0.424234,-3.84847 0.0035,-0.0242 0.006,-0.0484 0.0097,-0.0726 -0.0042,0.0176 -0.0072,0.0353 -0.01126,0.0529 -0.152165,-2.26087 -0.137458,-4.55375 0.07114,-6.85247 -0.515203,3.00759 -0.526106,6.00513 -0.456472,9.00612 -0.204635,1.5621 -0.266069,3.12908 -0.303462,4.69885 -0.04665,-0.2502 -0.09064,-0.50136 -0.134076,-0.7528 -0.106257,-1.94846 -0.03166,-3.92869 0.256382,-5.9051 -0.307856,1.32881 -0.465747,2.65797 -0.556775,3.9889 -0.652556,-4.72845 -0.724516,-9.63979 -0.05578,-14.53452 -0.709751,3.25063 -0.917891,6.51298 -1.009154,9.78331 -0.01282,0.0762 -0.02777,0.15225 -0.03992,0.22852 -0.22887,-1.89369 -0.555069,-3.78344 -1.08796,-5.67242 0.525544,2.69487 0.781698,5.40826 0.802409,8.09503 -0.01233,0.14974 -0.02307,0.29951 -0.03378,0.44931 -0.03714,-0.6693 -0.102452,-1.33955 -0.207257,-2.01142 0.183699,2.42449 0.02628,4.83587 -0.399668,7.15062 -0.707171,-6.67025 -0.592395,-13.31305 -2.379596,-19.86 0.538459,2.83878 0.843025,5.69537 0.94365,8.5354 -0.142538,-0.65589 -0.302627,-1.31016 -0.491271,-1.9626 0.221777,1.10519 0.394037,2.21379 0.524024,3.32299 0.01602,1.29631 -0.0094,2.5877 -0.07625,3.87106 -0.20061,-1.789 -0.491426,-3.5703 -0.9851,-5.33736 0.594309,3.08939 0.793943,6.20466 0.655027,9.26021 -0.06398,0.54886 -0.137303,1.09471 -0.215443,1.63888 -0.182584,-2.50348 -0.39797,-5.00152 -1.106894,-7.4553 0.568292,2.83136 0.709261,5.69604 0.509181,8.48541 -0.820843,-3.97381 -1.236039,-8.12105 -1.154487,-12.31662 0.01085,-0.0784 0.01935,-0.15674 0.03071,-0.23506 -0.01022,0.0442 -0.01816,0.0885 -0.02814,0.13271 0.0032,-0.1489 0.0078,-0.29791 0.01229,-0.44691 0.01379,-0.0962 0.02492,-0.19245 0.0394,-0.28862 -0.0132,0.0559 -0.02351,0.11187 -0.03634,0.16782 0.05698,-1.77455 0.201241,-3.5561 0.445214,-5.33619 -0.596071,2.72787 -0.840222,5.46443 -0.960537,8.20691 -0.526175,3.91423 -0.422497,7.85094 -0.650422,11.79293 -0.703561,-3.21807 -1.058124,-6.59201 -0.980495,-10.00706 0.01747,-0.24283 0.03716,-0.48596 0.06038,-0.72899 -0.01854,0.10279 -0.03316,0.20549 -0.05015,0.30825 0.04499,-1.35572 0.157262,-2.71709 0.345424,-4.07697 -0.438645,1.99419 -0.627664,3.9887 -0.726159,5.98722 -0.07606,-0.34496 -0.157146,-0.68989 -0.251266,-1.03368 0.08889,0.47606 0.163392,0.95304 0.228748,1.43001 -0.09271,2.13999 -0.0881,4.28535 -0.170921,6.44008 -0.322344,-3.03055 -0.478762,-6.03802 -0.696479,-9.0329 0.06373,-0.91779 0.159527,-1.83742 0.291692,-2.75587 -0.143244,0.62288 -0.25829,1.24646 -0.356683,1.87038 -0.282504,-3.62783 -0.693512,-7.23794 -1.660086,-10.84673 1.197261,6.46631 1.252294,13.01648 0.402228,19.26669 -0.340753,-3.36586 -0.276041,-6.82553 0.26764,-10.27247 -0.53575,2.20366 -0.76365,4.41922 -0.894523,6.64062 -0.233688,-2.71322 -0.572295,-5.41402 -1.342808,-8.09385 0.777237,3.89039 0.970337,7.82517 0.684197,11.65428 -0.439588,-5.46876 -0.489714,-10.94139 -1.914422,-16.31266 0.620975,3.39997 0.884553,6.82414 0.839768,10.20345 -0.131799,-0.9256 -0.304311,-1.84878 -0.528629,-2.76897 0.04427,-0.39502 0.09241,-0.78987 0.149429,-1.18482 -0.07397,0.32141 -0.140642,0.64293 -0.202138,0.96465 -0.01447,-0.0571 -0.02603,-0.11435 -0.04094,-0.17139 0.01213,0.0692 0.02155,0.1385 0.03327,0.20769 -0.80103,4.22103 -0.588802,8.46691 -0.792686,12.72306 -0.451989,-1.95637 -0.814499,-3.95316 -1.073121,-5.98068 -0.01363,-0.19717 -0.02362,-0.39507 -0.0348,-0.59271 0.04377,-0.95052 0.131872,-1.90378 0.270712,-2.85644 -0.132783,0.57313 -0.237053,1.1459 -0.321373,1.71923 -0.09727,-3.00311 0.08735,-6.05086 0.591571,-9.09122 -0.470111,1.8759 -0.750289,3.76051 -0.936485,5.65098 -0.13742,-3.43148 0.01982,-6.91413 0.516857,-10.3909 -1.032954,4.61218 -1.147008,9.2538 -1.272186,13.9073 -0.231952,-2.67545 -0.577273,-5.33875 -1.328479,-8.00161 0.390697,2.00342 0.632425,4.01692 0.739977,6.02234 -0.191566,0.88297 -0.326951,1.76906 -0.429862,2.65708 -0.155082,-2.2725 -0.375366,-4.53691 -0.867913,-6.78285 0.111385,-0.43523 0.227207,-0.8701 0.35259,-1.30325 -0.141006,0.37116 -0.270672,0.74246 -0.395576,1.11342 -0.06455,-0.28523 -0.131749,-0.57057 -0.205719,-0.85516 0.05847,0.32981 0.111675,0.66001 0.161709,0.99024 -0.389479,1.17385 -0.70723,2.34711 -0.977424,3.52294 -0.173025,-1.04134 -0.392029,-2.07935 -0.680616,-3.11233 0.208065,1.08159 0.366691,2.16672 0.480525,3.25099 -0.238439,1.08745 -0.383868,2.17524 -0.480525,3.26528 -0.183786,1.02426 -0.35943,2.05162 -0.539375,3.08554 -0.769617,-5.18979 -0.829191,-10.60411 -0.022,-15.99427 -0.481008,2.08388 -0.757219,4.17564 -0.934438,6.27286 -0.885901,4.54328 -0.698875,9.12088 -0.962586,13.70555 -0.03797,0.1451 -0.07666,0.28977 -0.115652,0.43442 -0.812974,-6.42799 -0.363495,-12.88337 -1.935916,-19.22088 0.544577,3.27066 0.744125,6.55737 0.639165,9.79343 -0.0084,0.0387 -0.01747,0.0773 -0.02558,0.11604 -0.05214,-0.21808 -0.106739,-0.4358 -0.166315,-0.6534 0.04912,0.26308 0.09423,0.52625 0.136122,0.78968 -0.520278,2.55518 -0.616954,5.14257 -0.831578,7.72965 -0.07115,0.37352 -0.146124,0.74551 -0.225167,1.1158 -0.224627,-2.02831 -0.199075,-4.11857 0.131007,-6.20027 -0.44363,1.81008 -0.532868,3.62269 -0.596179,5.44689 -0.17858,-0.83078 -0.338002,-1.6689 -0.484107,-2.51189 -0.18295,-3.04645 0.01028,-6.16294 0.626883,-9.25725 -0.45231,1.58353 -0.727812,3.18097 -0.925228,4.78572 0.01691,-1.92462 0.169629,-3.86377 0.474897,-5.79916 -0.444321,1.82758 -0.678312,3.66302 -0.820321,5.50341 -0.500437,-5.17522 -0.381113,-10.50297 0.454938,-15.81278 -0.939538,3.94846 -1.258335,7.92795 -1.463068,11.91968 -0.118112,-1.42735 -0.301737,-2.85327 -0.597201,-4.27811 0.416826,3.34274 0.447936,6.67954 0.125888,9.93804 -0.156331,-2.12372 -0.401714,-4.23971 -0.950303,-6.33892 0.619327,3.53147 0.697608,7.08763 0.318815,10.52896 -0.3144,-2.03433 -0.489299,-4.1137 -0.51481,-6.21396 0.0054,-0.025 0.01,-0.05 0.01535,-0.075 -0.0057,0.0184 -0.0098,0.037 -0.01535,0.0553 -0.02877,-2.45963 0.147152,-4.94803 0.55575,-7.42732 -0.825373,3.34654 -0.996516,6.73044 -1.163188,10.12191 -0.238462,1.46754 -0.363456,2.94753 -0.505088,4.42808 -0.06292,-0.38104 -0.121215,-0.76363 -0.175015,-1.14734 -0.09013,-2.2092 -0.133645,-4.41496 -0.461078,-6.60671 0.0018,-2.49718 0.200847,-5.01858 0.618183,-7.53506 -0.26487,1.05684 -0.466642,2.11648 -0.628418,3.17839 -0.614331,2.29636 -0.925942,4.62397 -1.180075,6.96079 0.04187,-5.06383 0.716748,-10.22052 2.100697,-15.25637 -2.262198,6.27189 -2.719444,12.51205 -4.028424,18.98581 -0.0091,-0.13374 -0.0185,-0.26744 -0.02917,-0.40109 0.08186,-3.53527 0.481726,-6.95296 0.194973,-10.43613 0.109021,-0.42467 0.222563,-0.84843 0.344913,-1.27112 -0.129381,0.34057 -0.250135,0.68079 -0.365895,1.02118 -0.08968,-0.97585 -0.232352,-1.95703 -0.456472,-2.94808 0.169852,1.16924 0.25848,2.33143 0.280434,3.48604 -1.390646,4.33547 -1.803646,8.66886 -2.746513,13.1438 -0.01533,-0.0811 -0.03067,-0.16212 -0.04554,-0.2434 0.09263,-3.5786 0.615691,-7.00539 -0.238471,-10.59143 0.40266,2.63169 0.251373,5.21796 -0.181668,7.7463 -0.448269,-3.95878 -0.348741,-8.06602 0.402228,-12.13928 -1.427894,5.35188 -1.091587,10.83735 -1.950244,16.2728 -0.4237878,-2.04947 -0.7164143,-4.14897 -0.8761003,-6.27763 0.062588,-1.49816 0.232518,-3.00489 0.5240222,-4.50603 -0.2754826,0.98031 -0.4693407,1.96649 -0.6166474,2.95641 -0.1602478,-3.68595 0.08719,-7.44559 0.7937101,-11.17998 -1.5790797,5.82278 -1.4064542,11.78992 -2.2020205,17.71587 -0.2071234,-2.59222 -0.2484631,-5.18017 -0.2768517,-7.76475 0.1136433,-1.28774 0.2962982,-2.57852 0.55268,-3.86513 -0.2326166,0.81438 -0.4180259,1.63279 -0.5711027,2.45357 -0.047757,-4.427 -0.1291623,-8.84355 -0.996871,-13.25091 0.7005481,5.91732 0.5028553,11.81998 -0.4871772,17.46237 -0.039325,-3.45628 -0.1078093,-6.9053 -0.8213439,-10.34627 0.5825087,4.67144 0.4104799,9.33099 -0.42628,13.78114 -0.3750666,-3.54914 -0.2332768,-7.23116 0.513276,-10.86519 -1.1206934,3.87486 -1.1549358,7.8544 -1.6391057,11.81198 -0.1158979,-2.27119 0.050059,-4.59131 0.5470509,-6.88818 -0.743834,2.44176 -0.9088243,4.93704 -1.1524402,7.43328 -0.6421543,-3.85712 -0.8677905,-7.84799 -0.6401877,-11.87327 0.086705,-0.47617 0.1790535,-0.95177 0.2835044,-1.42702 -0.088515,0.28907 -0.1683078,0.57872 -0.246659,0.86883 0.1655477,-2.47486 0.498235,-4.96023 1.0142701,-7.43329 -1.2418957,4.27193 -1.621392,8.63544 -2.04849818,13.00692 -0.1688646,1.36185 -0.30194685,2.72873 -0.44419096,4.09601 -0.21917465,1.75354 -0.48929307,3.50402 -0.87456499,5.24633 0.0563528,0.005 0.11252754,0.008 0.16887445,0.0125 -0.10174989,0.55671 -0.21159566,1.11262 -0.34081932,1.66745 0.1584808,0.012 0.31647233,0.0217 0.47489538,0.0333 v 1.85967 H 95.331096 v -4.16743 c 0.05965,0.005 0.119471,0.009 0.179111,0.0137 -1.430164,-7.35578 -1.760949,-15.44677 -0.05574,-23.28358 -1.633633,5.35708 -1.841017,11.24491 -2.391368,16.83754 -0.151039,-3.49347 0.101222,-7.06633 0.905268,-10.57479 -1.008478,3.1398 -1.355733,6.51211 -1.657529,9.84639 -0.416545,-3.86842 -0.398396,-7.87355 0.231306,-11.84113 -1.093985,4.50931 -0.996486,9.32051 -1.228173,13.94479 -0.271209,-2.82416 -0.224516,-5.7323 0.257399,-8.61514 -0.543334,2.1263 -0.727075,4.33888 -0.831067,6.55315 -0.266895,-2.92168 -0.32478,-5.90796 -0.123837,-8.90377 0.02963,-0.14676 0.05695,-0.29381 0.08853,-0.44036 -0.02802,0.0914 -0.05089,0.1834 -0.07778,0.27492 0.149776,-2.13133 0.428829,-4.26648 0.86228,-6.38534 -0.933425,3.20821 -1.343341,6.46161 -1.624262,9.73154 -0.297605,1.75135 -0.465471,3.51458 -0.606413,5.28205 0.101436,-1.41454 0.140742,-2.83357 -10e-4,-4.27098 0.03111,1.5959 -0.08707,3.17847 -0.32342,4.72502 -0.01161,-0.31988 -0.03258,-0.64091 -0.06601,-0.96285 0.01056,0.51472 9e-6,1.02766 -0.02917,1.53772 -0.143005,0.82689 -0.316169,1.64347 -0.522487,2.44344 -0.487776,-3.03155 -0.794602,-6.15293 -0.8761,-9.31259 0.121801,-1.99547 0.374951,-3.99585 0.787057,-5.98186 -0.334118,1.11821 -0.593153,2.24161 -0.800362,3.36941 0.05111,-3.42438 0.378612,-6.87755 1.052139,-10.29629 z m -11.336592,8.30095 c 0.155353,2.49059 0.12694,4.97429 -0.05629,7.42197 -0.138723,1.0468 -0.24611,2.10035 -0.345425,3.1528 -0.295023,-3.47484 -0.202083,-7.03909 0.401718,-10.57477 z m -25.235472,0.71173 c 0.600144,3.23563 0.801551,6.49597 0.662193,9.69701 -0.01886,-0.1228 -0.03717,-0.2459 -0.05527,-0.36895 -0.01768,-1.60308 -0.129061,-3.20196 -0.503041,-4.78752 -0.09488,-1.50373 -0.13231,-3.01888 -0.103884,-4.54054 z m 8.724156,0.55164 c 0.112287,0.71025 0.205665,1.42123 0.280945,2.13221 -0.231541,1.44804 -0.370712,2.90084 -0.464147,4.35667 -0.108526,-2.14337 -0.05625,-4.31639 0.183202,-6.48888 z m -30.449599,1.30741 c 0.594289,4.10094 0.546524,8.22245 -0.02507,12.16904 -0.06637,-1.58726 -0.159527,-3.17071 -0.497412,-4.74347 -0.08591,-1.03945 -0.190416,-2.07672 -0.333143,-3.11115 0.211582,-1.44271 0.496614,-2.88298 0.855629,-4.31442 z m 41.731437,1.02 c 0.01494,0.18212 0.03001,0.36422 0.04247,0.54629 -0.08661,0.60811 -0.154698,1.21691 -0.211348,1.82634 0.0355,-0.79013 0.09056,-1.58129 0.168875,-2.37263 z m -36.694883,0.0928 c 0.27059,1.68354 0.420387,3.37095 0.456472,5.04757 -0.07798,1.3755 -0.206235,2.74018 -0.382781,4.09006 -0.364351,-2.9892 -0.40893,-6.06133 -0.07369,-9.13763 z m -20.830919,0.0827 c 0.007,3.18098 -0.479614,6.30275 -1.180586,9.35068 0.06192,-3.10359 0.445787,-6.24694 1.180586,-9.35068 z m 53.858155,0.49868 c -0.05571,1.20535 -0.0926,2.41217 -0.126912,3.61995 -0.03801,-0.64884 -0.100305,-1.29648 -0.198043,-1.94238 0.09736,-0.56005 0.202961,-1.11971 0.324955,-1.67757 z m -7.223732,0.30469 c 0.166463,2.13105 0.173308,4.25661 0.0394,6.3532 -0.164737,-2.09516 -0.185844,-4.22115 -0.0394,-6.3532 z m -43.737459,0.39871 c -0.02732,0.24794 -0.05541,0.49573 -0.07932,0.74387 -0.0053,-0.0226 -0.0095,-0.0452 -0.01484,-0.0678 0.02923,-0.22537 0.06105,-0.45066 0.09416,-0.67603 z m -0.0957,0.68734 c 0.0047,0.0308 0.0087,0.0614 0.01331,0.0922 -0.17125,1.78895 -0.260034,3.58338 -0.344913,5.37963 -0.01386,-1.81286 0.0948,-3.64158 0.331607,-5.47187 z m 46.057691,0.17019 c 0.07541,1.18605 0.09408,2.36938 0.06294,3.54616 -0.0304,0.21308 -0.06027,0.42608 -0.09314,0.63853 -0.06987,-1.38495 -0.06322,-2.78297 0.0302,-4.18469 z m -11.18307,0.20591 c 0.05288,0.44557 0.09563,0.89121 0.119746,1.33657 -0.04459,-0.44439 -0.0854,-0.88974 -0.119746,-1.33657 z m -23.087696,0.034 c 0.01515,0.14762 0.02902,0.29517 0.04247,0.44276 -0.07524,0.3482 -0.142126,0.69737 -0.211349,1.04616 0.0438,-0.49627 0.100095,-0.99255 0.168875,-1.48892 z m 43.071171,0.19579 c 0.01014,0.59206 0.006,1.18259 -0.0082,1.77159 -0.0104,-0.58911 -0.0077,-1.17971 0.0082,-1.77159 z m -4.223907,0.24755 c 0.122845,1.90177 -0.0048,3.79982 -0.272757,5.66886 -0.04137,-0.71883 -0.08326,-1.43814 -0.133053,-2.15662 0.08658,-1.16998 0.219507,-2.34233 0.40581,-3.51224 z m -36.27679,0.36361 c 0.100001,2.21402 0.03886,4.4169 -0.173992,6.58231 -0.02593,-0.37899 -0.052,-0.75773 -0.07523,-1.13663 -0.07058,-1.79967 0.0075,-3.62289 0.249217,-5.44568 z m 51.671487,0.95929 c 0.07825,1.90063 -0.01905,3.79016 -0.259453,5.63195 -0.03072,-1.86205 0.05064,-3.74665 0.259453,-5.63195 z m -54.076668,0.48618 c 0.09284,2.05766 0.02597,4.10332 -0.18525,6.11278 -0.03754,-0.29025 -0.07197,-0.58122 -0.101837,-0.87359 -0.0069,-1.73568 0.08791,-3.48645 0.287087,-5.23919 z m -4.573427,0.1 c -0.03893,0.72124 -0.09402,1.43905 -0.162733,2.15363 0.02909,-0.71644 0.08231,-1.43463 0.162733,-2.15363 z m 5.176257,2.6666 c 0.02896,0.31897 0.05099,0.63799 0.06653,0.95632 -0.02192,-0.31878 -0.04325,-0.63777 -0.06653,-0.95632 z m 59.436641,0.35706 c -0.112046,1.46591 -0.222334,2.93369 -0.387387,4.39952 0.09059,-1.4734 0.256823,-2.93588 0.387387,-4.39952 z"
       inkscape:label="shower-grass" />
  </g>
</svg>
