<?xml version="1.0" encoding="UTF-8" standalone="no"?>
<!-- Created with Inkscape (http://www.inkscape.org/) -->

<svg
   width="400.25278"
   height="119.05123"
   viewBox="0 0 105.90001 31.49891"
   version="1.1"
   id="svg6478"
   inkscape:version="1.2.2 (732a01da63, 2022-12-09)"
   sodipodi:docname="shower-grass.svg"
   xmlns:inkscape="http://www.inkscape.org/namespaces/inkscape"
   xmlns:sodipodi="http://sodipodi.sourceforge.net/DTD/sodipodi-0.dtd"
   xmlns="http://www.w3.org/2000/svg"
   xmlns:svg="http://www.w3.org/2000/svg">
  <sodipodi:namedview
     id="namedview6480"
     pagecolor="#ffffff"
     bordercolor="#000000"
     borderopacity="0.25"
     inkscape:showpageshadow="2"
     inkscape:pageopacity="0.0"
     inkscape:pagecheckerboard="false"
     inkscape:deskcolor="#d1d1d1"
     inkscape:document-units="mm"
     showgrid="false"
     inkscape:zoom="1.1893044"
     inkscape:cx="373.32747"
     inkscape:cy="-7.1470349"
     inkscape:window-width="1440"
     inkscape:window-height="890"
     inkscape:window-x="-6"
     inkscape:window-y="-6"
     inkscape:window-maximized="1"
     inkscape:current-layer="layer1" />
  <defs
     id="defs6475" />
  <g
     inkscape:label="Layer 1"
     inkscape:groupmode="layer"
     id="layer1"
     transform="translate(7.8728565,-138.8672)">
    <path
       sodipodi:type="star"
       style="opacity:0;fill:#44d2a8;stroke:#000000;stroke-width:0.254;stroke-dashoffset:23.04"
       id="path6653"
       inkscape:flatsided="false"
       sodipodi:sides="3"
       sodipodi:cx="32.035534"
       sodipodi:cy="36.707378"
       sodipodi:r1="46.882401"
       sodipodi:r2="23.4412"
       sodipodi:arg1="0.77197615"
       sodipodi:arg2="1.8191737"
       inkscape:rounded="0"
       inkscape:randomized="0"
       d="M 65.628349,69.410318 26.27295,59.429229 -13.08245,49.44814 15.239126,20.355909 43.560703,-8.7363227 54.594526,30.336997 Z"
       inkscape:transform-center-x="5.7625846"
       inkscape:transform-center-y="-6.3703812" />
    <path
       sodipodi:type="star"
       style="opacity:0;fill:#20c997;fill-opacity:1;stroke:#000000;stroke-width:0.254;stroke-dashoffset:23.04"
       id="path7124"
       inkscape:flatsided="false"
       sodipodi:sides="3"
       sodipodi:cx="26.69628"
       sodipodi:cy="42.269104"
       sodipodi:r1="57.749878"
       sodipodi:r2="28.874937"
       sodipodi:arg1="0.80991641"
       sodipodi:arg2="1.857114"
       inkscape:rounded="0"
       inkscape:randomized="0"
       d="M 66.518226,84.093271 18.54137,69.968552 -29.435485,55.843838 6.7853084,21.357021 43.006098,-13.129797 54.76216,35.481739 Z"
       inkscape:transform-center-x="8.1549092"
       inkscape:transform-center-y="-6.7873672" />
    <path
       sodipodi:type="star"
       style="font-variation-settings:normal;opacity:0;vector-effect:none;fill:#20c997;fill-opacity:1;fill-rule:evenodd;stroke:#000000;stroke-width:0.254;stroke-linecap:butt;stroke-linejoin:miter;stroke-miterlimit:4;stroke-dasharray:none;stroke-dashoffset:87.0803;stroke-opacity:1;-inkscape-stroke:none;stop-color:#000000;stop-opacity:1"
       id="path11540"
       inkscape:flatsided="false"
       sodipodi:sides="3"
       sodipodi:cx="13.213983"
       sodipodi:cy="36.967693"
       sodipodi:r1="47.776733"
       sodipodi:r2="24.385574"
       sodipodi:arg1="0.83431017"
       sodipodi:arg2="1.8815077"
       inkscape:rounded="0"
       inkscape:randomized="0"
       d="M 45.305084,72.36229 5.758434,60.185597 -33.484188,47.062104 -3.1655372,18.902047 27.821052,-8.5213139 37.049051,31.815436 Z"
       inkscape:transform-center-x="7.3035348"
       inkscape:transform-center-y="-5.0472056" />
    <path
       id="path14571"
       style="font-variation-settings:normal;fill:#4ab563;fill-opacity:1;stroke:none;stroke-width:0.0907885;stroke-linecap:butt;stroke-linejoin:miter;stroke-miterlimit:4;stroke-dasharray:none;stroke-dashoffset:0;stroke-opacity:1;stop-color:#000000"
       d="m 90.283141,138.86721 c -2.427889,8.03092 -1.931593,16.27431 -3.075284,24.45593 -0.04777,-0.26045 -0.09214,-0.52258 -0.135841,-0.78481 -0.385744,-3.26966 -0.32045,-6.66778 0.379902,-10.01745 -0.501227,1.64937 -0.770432,3.31378 -0.945244,4.98566 -0.195268,-3.40476 -0.0091,-6.88675 0.674128,-10.32866 -1.266019,4.38794 -1.317458,8.85817 -1.650373,13.32829 -0.0766,-1.34891 -0.219208,-2.69397 -0.568161,-4.03231 0.372972,2.21386 0.373118,4.44276 0.103711,6.60018 -0.162803,-2.82254 -0.08921,-5.64175 -0.463884,-8.44289 0.324479,-2.30236 0.851066,-4.60088 1.61148,-6.8579 -0.793547,1.80732 -1.360026,3.68752 -1.814959,5.59579 -0.0712,-0.37775 -0.149618,-0.75535 -0.242934,-1.13231 0.07348,0.4594 0.133733,0.91952 0.184315,1.37957 -0.430181,1.84539 -0.760634,3.7154 -1.091231,5.5718 -0.167607,-5.97483 0.526479,-12.14158 2.427648,-18.08515 -1.637227,3.92745 -2.483343,8.12167 -3.21056,12.30976 -0.08546,-0.55039 -0.195465,-1.09938 -0.344392,-1.64589 0.129784,0.72565 0.209167,1.45198 0.253644,2.1773 -0.403458,2.35167 -0.779615,4.69824 -1.245107,6.99076 0.02391,-4.87532 0.83025,-9.86763 -0.425557,-14.72142 0.636543,3.74864 0.360088,7.50771 -0.292536,11.16268 -0.147784,-2.9204 -0.387604,-5.8314 -1.200578,-8.71659 0.880826,4.70244 0.757954,9.46715 -0.04678,13.98026 -0.367213,-3.61316 -0.403578,-7.2295 -0.619454,-10.83178 0.146511,-0.89335 0.323229,-1.78494 0.539979,-2.67243 -0.222126,0.64894 -0.414067,1.30773 -0.58338,1.97372 -0.199537,-2.97132 -0.546467,-5.93203 -1.333036,-8.8722 0.307021,1.72639 0.510498,3.45911 0.626217,5.18924 -1.369648,4.95728 -1.193114,9.98075 -1.524679,15.00802 -0.414245,-3.21346 -0.413722,-6.54882 0.174733,-9.85199 -0.565464,2.07651 -0.77883,4.23218 -0.897334,6.39414 -0.119782,-1.74199 -0.303033,-3.47874 -0.709075,-5.20278 -0.0043,-0.0607 -0.0066,-0.12187 -0.01071,-0.18266 0.147671,-1.30064 0.36549,-2.60073 0.662292,-3.89332 -0.298709,0.91466 -0.533532,1.83395 -0.72993,2.75668 -0.189141,-3.92064 0.01339,-7.90806 0.705692,-11.86753 -1.777317,6.7168 -1.435221,13.52853 -1.942343,20.34118 0.03992,-0.84651 0.03862,-1.69625 -0.05637,-2.55433 0.01598,0.73026 -0.01419,1.45648 -0.07947,2.17669 -0.02978,-1.39468 0.06417,-2.8055 0.305499,-4.21007 -0.431362,1.63275 -0.560128,3.28624 -0.631289,4.94014 -0.242385,-3.28573 -0.27781,-6.57195 -0.727676,-9.8317 0.0855,-0.89739 0.203774,-1.79519 0.358484,-2.69148 -0.181136,0.68053 -0.331001,1.3619 -0.455995,2.04445 -0.02905,-0.18624 -0.0597,-0.37243 -0.09187,-0.55847 0.152188,-1.18995 0.354871,-2.3793 0.616635,-3.56304 -0.300676,0.94427 -0.541774,1.89299 -0.746275,2.84403 -0.131177,-0.66687 -0.285013,-1.33255 -0.467268,-1.99647 0.151797,0.81843 0.272358,1.63882 0.369192,2.45961 -0.656851,3.26875 -0.852134,6.57186 -1.092921,9.87967 -0.123838,-1.23273 -0.310172,-2.4588 -0.6668,-3.66575 0.401768,1.98875 0.507824,3.9971 0.377647,5.96053 -0.542989,-3.26542 -0.625322,-6.69418 -0.07046,-10.09555 -0.704568,2.80892 -0.746947,5.66476 -0.844349,8.50686 -0.09803,-2.44549 0.07285,-4.93456 0.587888,-7.39792 -0.245598,0.80818 -0.434721,1.61995 -0.585071,2.4344 0.211782,-2.72266 0.692181,-5.45689 1.488604,-8.1452 -1.126216,2.85014 -1.706174,5.82257 -2.176823,8.80762 -0.242665,-2.21923 -0.353899,-4.47248 -0.317335,-6.73919 0.111521,-0.36943 0.228499,-0.73785 0.352282,-1.10526 -0.121578,0.2769 -0.23639,0.55635 -0.347773,0.83648 0.04898,-2.29481 0.250454,-4.6024 0.627345,-6.90217 -0.710594,2.81194 -1.025036,5.63826 -1.19607,8.47303 -0.209776,0.63222 -0.399717,1.27003 -0.573234,1.91283 -0.08461,-0.39458 -0.180914,-0.78857 -0.2993,-1.18153 0.09846,0.47537 0.171218,0.95108 0.232225,1.42693 -0.207657,0.78872 -0.392816,1.58388 -0.562524,2.38213 -0.148683,-1.17177 -0.359067,-2.33618 -0.682019,-3.48739 0.279865,1.45914 0.439512,2.92632 0.497141,4.3866 -0.35356,1.77195 -0.651921,3.55183 -0.977372,5.30979 -0.109008,-1.05729 -0.194374,-2.12209 -0.248571,-3.19461 0.0267,-1.05216 0.01962,-2.10414 -0.07327,-3.15155 0.01103,-4.82484 0.612604,-9.73437 1.961508,-14.53013 -2.410223,6.42453 -2.776866,13.3321 -3.946126,19.96416 -0.112044,-4.90677 0.5582,-9.86357 -0.829696,-14.71587 0.551871,2.80633 0.595857,5.62455 0.347773,8.40845 -0.07704,-0.72088 -0.173277,-1.44082 -0.293663,-2.15946 0.05629,-0.5143 0.121114,-1.0285 0.202352,-1.54257 -0.100442,0.40121 -0.184816,0.80253 -0.263226,1.20429 -0.152609,-0.85301 -0.338513,-1.7041 -0.577743,-2.55311 0.201803,1.07736 0.350501,2.15749 0.450921,3.23766 -0.460676,2.75462 -0.481893,5.52183 -0.54336,8.29467 -0.147533,0.69332 -0.303201,1.38023 -0.463322,2.06352 -0.44296,-4.06524 -0.515734,-8.13969 -1.241161,-12.16522 0.09984,-0.90738 0.228371,-1.81496 0.39512,-2.72041 -0.198439,0.71202 -0.363615,1.42524 -0.503905,2.13979 -0.117688,-0.59814 -0.251186,-1.19542 -0.403575,-1.79105 0.03657,-0.28606 0.07331,-0.57208 0.116676,-0.858 -0.05634,0.23545 -0.10437,0.47106 -0.153877,0.7067 -0.103541,-0.39611 -0.214276,-0.7916 -0.335936,-1.18644 0.103143,0.48232 0.193631,0.96565 0.278444,1.44907 -0.546723,2.73645 -0.661095,5.48567 -0.726548,8.24116 -0.185222,-1.41317 -0.449493,-2.81899 -0.878169,-4.2113 0.684147,3.19848 0.807084,6.43734 0.490377,9.57152 -0.161918,-2.89587 -0.283641,-5.78562 -1.10814,-8.63725 0.521375,2.6689 0.635652,5.36404 0.434012,7.99514 -0.467449,-2.2889 -0.787189,-4.63622 -0.933407,-7.01597 -0.01525,-2.0286 0.124325,-4.07471 0.439648,-6.11675 -0.22815,0.92586 -0.399087,1.85429 -0.531523,2.78437 0.01773,-2.09045 0.175284,-4.19502 0.490377,-6.29512 -1.105504,4.65103 -1.039495,9.33163 -1.157741,14.02517 -0.182388,1.24746 -0.244773,2.50224 -0.290281,3.75615 -0.395781,-3.0062 -0.5892,-6.01927 -0.809404,-9.02598 0.07677,-1.38005 0.227922,-2.76416 0.46614,-4.14425 -0.242682,0.91177 -0.425929,1.82602 -0.571542,2.74131 -0.317015,-4.02638 -0.759772,-8.03662 -1.917545,-11.99423 1.253102,6.17194 1.376395,12.43083 0.645946,18.43819 -0.307733,-3.11965 -0.257574,-6.31424 0.231097,-9.50079 -0.635255,2.59202 -0.828112,5.19319 -0.912552,7.80077 -0.004,-0.0137 -0.0072,-0.0275 -0.01127,-0.0412 0.0039,0.0192 0.0069,0.0386 0.01071,0.0578 -0.01084,0.3365 -0.02024,0.67322 -0.02818,1.00992 -0.09051,-1.2429 -0.180891,-2.48541 -0.30099,-3.72478 0.262228,-2.03592 0.678223,-4.07059 1.27329,-6.07923 -0.610453,1.54488 -1.061358,3.12574 -1.42153,4.72487 -0.226417,-1.90426 -0.550411,-3.79934 -1.098557,-5.67452 0.485171,2.38908 0.73603,4.79564 0.786293,7.18326 -0.228269,1.18547 -0.420862,2.37766 -0.600852,3.5704 -0.261992,-3.32034 -0.57835,-6.62474 -1.526933,-9.89997 0.0475,-2.07145 0.214355,-4.15294 0.519123,-6.23176 -1.507357,6.44288 -1.039456,12.97574 -1.401801,19.4838 -0.628763,-3.90553 -0.705451,-7.96817 -0.08229,-12.01884 -0.670954,2.73558 -0.851992,5.48198 -0.933971,8.23501 -0.212971,-1.31113 -0.370627,-2.63889 -0.467268,-3.97759 0.0039,-0.025 0.0067,-0.05 0.01071,-0.075 -0.0046,0.0182 -0.0079,0.0365 -0.0124,0.0547 -0.167602,-2.33673 -0.151403,-4.70653 0.07835,-7.08238 -0.567466,3.1085 -0.579475,6.20661 -0.502777,9.30828 -0.225394,1.61451 -0.293059,3.23407 -0.334246,4.8565 -0.05138,-0.25859 -0.09983,-0.51818 -0.147676,-0.77805 -0.117036,-2.01384 -0.03487,-4.0605 0.282389,-6.10322 -0.339085,1.37339 -0.512993,2.74714 -0.613254,4.12273 -0.718751,-4.8871 -0.798011,-9.96322 -0.06144,-15.02217 -0.781748,3.35969 -1.011001,6.7315 -1.111522,10.11155 -0.01412,0.0788 -0.03059,0.15736 -0.04396,0.23619 -0.252087,-1.95723 -0.611376,-3.91038 -1.198323,-5.86274 0.578855,2.78529 0.860993,5.58971 0.883806,8.36663 -0.01358,0.15476 -0.02542,0.30956 -0.0372,0.46438 -0.04091,-0.69175 -0.112844,-1.38449 -0.22828,-2.0789 0.202333,2.50583 0.02895,4.99811 -0.440211,7.39053 -0.778906,-6.89405 -0.652488,-13.75972 -2.620982,-20.52632 0.59308,2.93402 0.928541,5.88645 1.039374,8.82177 -0.156997,-0.6779 -0.333326,-1.35412 -0.541106,-2.02845 0.244274,1.14227 0.434008,2.28806 0.577181,3.43448 0.01764,1.3398 -0.01036,2.67452 -0.08399,4.00094 -0.220959,-1.84903 -0.541276,-3.69009 -1.085029,-5.51644 0.654596,3.19305 0.874481,6.41284 0.721473,9.5709 -0.07047,0.56728 -0.151231,1.13144 -0.237297,1.69387 -0.201105,-2.58748 -0.438341,-5.16933 -1.219178,-7.70543 0.62594,2.92635 0.781209,5.88714 0.560833,8.7701 -0.90411,-4.10714 -1.361424,-8.39352 -1.271599,-12.72985 0.01195,-0.081 0.02132,-0.162 0.03382,-0.24295 -0.01126,0.0457 -0.02001,0.0915 -0.031,0.13716 0.0035,-0.15389 0.0086,-0.3079 0.01353,-0.4619 0.01519,-0.0994 0.02745,-0.19891 0.0434,-0.29831 -0.01453,0.0578 -0.02589,0.11563 -0.04002,0.17345 0.06276,-1.83408 0.221655,-3.67541 0.490377,-5.51522 -0.656537,2.81939 -0.925454,5.64777 -1.057974,8.48226 -0.579551,4.04556 -0.465356,8.11435 -0.716402,12.18859 -0.77493,-3.32604 -1.16546,-6.81318 -1.079956,-10.3428 0.01924,-0.25098 0.04093,-0.50227 0.06651,-0.75345 -0.02043,0.10624 -0.03652,0.21238 -0.05524,0.31859 0.04956,-1.40121 0.173215,-2.80825 0.380465,-4.21375 -0.483142,2.06109 -0.691335,4.12252 -0.799821,6.18809 -0.08377,-0.35653 -0.173087,-0.71304 -0.276754,-1.06836 0.09791,0.49203 0.179966,0.98502 0.251952,1.47799 -0.102121,2.21179 -0.09704,4.42913 -0.188259,6.65615 -0.355044,-3.13223 -0.527328,-6.2406 -0.767131,-9.33596 0.0702,-0.94859 0.175709,-1.89907 0.321282,-2.84833 -0.157775,0.64377 -0.284491,1.28827 -0.392865,1.93313 -0.311162,-3.74955 -0.763862,-7.48078 -1.828486,-11.21065 1.318712,6.68326 1.379327,13.45319 0.44303,19.9131 -0.375319,-3.47878 -0.304043,-7.05453 0.29479,-10.61712 -0.590097,2.2776 -0.841115,4.56749 -0.985264,6.86342 -0.257394,-2.80425 -0.630349,-5.59566 -1.479022,-8.3654 0.856079,4.02091 1.068767,8.08771 0.753602,12.04529 -0.484181,-5.65224 -0.539391,-11.30848 -2.108622,-16.85996 0.683967,3.51404 0.974283,7.05309 0.924954,10.54578 -0.145168,-0.95665 -0.33518,-1.91081 -0.582253,-2.86187 0.04876,-0.40827 0.101789,-0.81637 0.164587,-1.22457 -0.08148,0.33219 -0.154908,0.6645 -0.222643,0.99701 -0.01594,-0.059 -0.02867,-0.11818 -0.04509,-0.17714 0.01336,0.0715 0.02373,0.14315 0.03664,0.21466 -0.882286,4.36265 -0.648531,8.75098 -0.873096,13.14993 -0.497839,-2.02201 -0.897122,-4.08579 -1.181979,-6.18134 -0.01501,-0.20378 -0.02602,-0.40832 -0.03833,-0.61259 0.0482,-0.98241 0.145249,-1.96766 0.298172,-2.95228 -0.146252,0.59236 -0.261099,1.18435 -0.353973,1.77691 -0.107135,-3.10387 0.09622,-6.25387 0.651581,-9.39624 -0.517799,1.93884 -0.826398,3.88668 -1.031483,5.84058 -0.151359,-3.54661 0.02183,-7.14611 0.569288,-10.73952 -1.137737,4.76692 -1.263361,9.56427 -1.401237,14.3739 -0.255482,-2.76522 -0.635832,-5.51787 -1.463241,-8.27007 0.43033,2.07063 0.696579,4.15169 0.815041,6.22439 -0.210999,0.9126 -0.360117,1.82841 -0.473468,2.74623 -0.170812,-2.34875 -0.413442,-4.68913 -0.955954,-7.01042 0.122684,-0.44983 0.250256,-0.89929 0.388357,-1.34698 -0.155309,0.38362 -0.298129,0.76737 -0.435703,1.15078 -0.0711,-0.2948 -0.145114,-0.58971 -0.226588,-0.88385 0.0644,0.34087 0.123004,0.68215 0.178114,1.02346 -0.428988,1.21323 -0.778972,2.42586 -1.076575,3.64114 -0.190576,-1.07628 -0.431796,-2.14912 -0.749658,-3.21675 0.229172,1.11788 0.403889,2.23941 0.52927,3.36006 -0.262626,1.12394 -0.422807,2.24822 -0.52927,3.37483 -0.202429,1.05863 -0.39589,2.12046 -0.594089,3.18907 -0.847687,-5.36392 -0.913304,-10.95989 -0.02424,-16.5309 -0.529802,2.1538 -0.834031,4.31574 -1.029228,6.48332 -0.975767,4.69572 -0.769769,9.4269 -1.06023,14.16539 -0.04182,0.14996 -0.08444,0.29949 -0.127385,0.44899 -0.895442,-6.64365 -0.400367,-13.31562 -2.132295,-19.86575 0.599819,3.38039 0.819609,6.77737 0.704002,10.122 -0.0092,0.04 -0.01924,0.0799 -0.02818,0.11994 -0.05744,-0.2254 -0.117567,-0.45042 -0.183187,-0.67533 0.05411,0.27191 0.103789,0.54391 0.149931,0.81618 -0.573055,2.64091 -0.679538,5.31511 -0.915934,7.98898 -0.07837,0.38606 -0.160947,0.77053 -0.248007,1.15324 -0.247413,-2.09636 -0.21927,-4.25675 0.144295,-6.40829 -0.488631,1.87081 -0.586921,3.74423 -0.656654,5.62963 -0.196696,-0.85865 -0.37229,-1.72489 -0.533215,-2.59616 -0.201509,-3.14866 0.01132,-6.36971 0.690473,-9.56784 -0.498192,1.63666 -0.801641,3.28769 -1.019083,4.94629 0.01862,-1.9892 0.186836,-3.99341 0.52307,-5.99373 -0.489392,1.8889 -0.74712,3.78592 -0.903534,5.68805 -0.551202,-5.34885 -0.419773,-10.85535 0.501087,-16.34331 -1.034845,4.08093 -1.385981,8.19394 -1.611482,12.3196 -0.130093,-1.47524 -0.332345,-2.949 -0.657781,-4.42165 0.459109,3.45489 0.493374,6.90365 0.138658,10.27147 -0.172189,-2.19497 -0.442464,-4.38196 -1.046701,-6.55159 0.682151,3.64995 0.768373,7.32542 0.351155,10.88221 -0.346293,-2.10258 -0.538933,-4.25172 -0.567033,-6.42244 0.0059,-0.0258 0.01096,-0.0517 0.01691,-0.0775 -0.0062,0.019 -0.01082,0.0382 -0.01691,0.0572 -0.03169,-2.54216 0.162079,-5.11404 0.612125,-7.67652 -0.909098,3.45882 -1.097602,6.95626 -1.281181,10.46151 -0.262652,1.51678 -0.400325,3.04643 -0.556324,4.57665 -0.06931,-0.39383 -0.133511,-0.78925 -0.192769,-1.18584 -0.09927,-2.28332 -0.147202,-4.56308 -0.50785,-6.82837 0.0019,-2.58096 0.221221,-5.18695 0.680892,-7.78786 -0.291739,1.09229 -0.513979,2.18749 -0.692165,3.28502 -0.676649,2.37341 -1.01987,4.77911 -1.299782,7.19433 0.04612,-5.23372 0.789455,-10.56342 2.313792,-15.76823 -2.491675,6.48232 -2.995305,12.93184 -4.4370678,19.6228 -0.01005,-0.13823 -0.02038,-0.27641 -0.03213,-0.41455 0.09017,-3.65388 0.530592,-7.18623 0.214751,-10.78627 0.12008,-0.43891 0.24514,-0.87689 0.379901,-1.31376 -0.142505,0.35199 -0.275508,0.70363 -0.403011,1.05544 -0.09878,-1.00859 -0.255922,-2.02269 -0.502777,-3.04699 0.187082,1.20847 0.2847,2.40965 0.308882,3.603 -1.531714,4.48092 -1.986609,8.9597 -3.02512,13.58478 -0.01689,-0.0838 -0.03378,-0.16756 -0.05016,-0.25156 0.102026,-3.69867 0.678147,-7.24043 -0.262662,-10.94679 0.443506,2.71999 0.276873,5.39303 -0.200096,8.0062 -0.493741,-4.0916 -0.384117,-8.33664 0.44303,-12.54656 -1.57274,5.53144 -1.202318,11.20095 -2.148077,16.81876 -0.466777,-2.11823 -0.7890876,-4.28817 -0.9649722,-6.48825 0.068937,-1.54842 0.2561047,-3.1057 0.5771792,-4.65721 -0.3034276,1.0132 -0.5169507,2.03247 -0.6792002,3.0556 -0.1765034,-3.80962 0.096034,-7.69539 0.8742242,-11.55508 -1.739262,6.01814 -1.5491252,12.18549 -2.42539402,18.31026 -0.228134,-2.6792 -0.2736673,-5.35397 -0.3049356,-8.02527 0.1251713,-1.33094 0.3263548,-2.66503 0.60874402,-3.99481 -0.25621332,0.84171 -0.46043062,1.68757 -0.62903552,2.53589 -0.052601,-4.57553 -0.1422646,-9.14026 -1.0979938,-13.69549 0.7716118,6.11585 0.553865,12.21655 -0.53659658,18.04825 -0.043315,-3.57224 -0.1187455,-7.13698 -0.9046612,-10.69339 0.6415984,4.82817 0.452119,9.64405 -0.469522,14.2435 -0.4131134,-3.66821 -0.2569404,-7.47377 0.5653428,-11.22972 -1.2343767,4.00486 -1.2720927,8.11792 -1.8053769,12.20828 -0.1276547,-2.34739 0.055137,-4.74535 0.6025439,-7.11929 -0.8192887,2.52369 -1.0010157,5.10269 -1.269344,7.68268 -0.7072946,-3.98653 -0.9558195,-8.1113 -0.7051285,-12.27163 0.095501,-0.49215 0.1972167,-0.9837 0.3122632,-1.4749 -0.097494,0.29877 -0.185381,0.59814 -0.2716802,0.89798 0.1823408,-2.55789 0.5487761,-5.12665 1.1171579,-7.68268 -1.3678739,4.41526 -1.7858664,8.92517 -2.2562983,13.44331 -0.1859943,1.40754 -0.3325764,2.82028 -0.4892498,4.23344 -0.2414078,1.81237 -0.5389271,3.62158 -0.9632811,5.42235 0.062069,0.005 0.1239424,0.008 0.1860051,0.0129 -0.1120714,0.57539 -0.23306,1.14995 -0.3753921,1.7234 0.1745571,0.0124 0.3485754,0.0224 0.5230689,0.0344 v 1.92206 H 97.829871 v -4.30725 c 0.0657,0.005 0.13159,0.009 0.19728,0.0142 -1.57524,-7.60257 -1.93958,-15.96502 -0.0614,-24.06476 -1.79935,5.53681 -2.02777,11.62218 -2.63395,17.40245 -0.16636,-3.61068 0.11149,-7.30341 0.9971,-10.92958 -1.11078,3.24514 -1.49326,6.73059 -1.82567,10.17674 -0.4588,-3.99821 -0.43881,-8.13771 0.25477,-12.23841 -1.20496,4.6606 -1.09757,9.63322 -1.35276,14.41265 -0.29872,-2.91891 -0.24729,-5.92462 0.28351,-8.90419 -0.59845,2.19764 -0.80083,4.48446 -0.91537,6.77302 -0.29397,-3.01971 -0.357726,-6.10618 -0.1364,-9.2025 0.03264,-0.15168 0.06273,-0.30367 0.09751,-0.45514 -0.03086,0.0945 -0.05605,0.18956 -0.08567,0.28415 0.16497,-2.20284 0.47233,-4.40963 0.94975,-6.59957 -1.028111,3.31584 -1.479609,6.6784 -1.789027,10.05804 -0.327793,1.81011 -0.512688,3.63249 -0.667928,5.45926 0.111726,-1.462 0.15502,-2.92863 -0.0011,-4.41427 0.03426,1.64944 -0.0959,3.28511 -0.356227,4.88355 -0.01278,-0.33061 -0.03588,-0.66242 -0.07271,-0.99516 0.01164,0.53199 9e-6,1.06214 -0.03213,1.58931 -0.157512,0.85464 -0.348241,1.69861 -0.575488,2.52542 -0.537256,-3.13326 -0.875207,-6.35936 -0.964972,-9.62503 0.134156,-2.06242 0.412986,-4.12992 0.866896,-6.18256 -0.36801,1.15573 -0.653322,2.31682 -0.881551,3.48246 0.0563,-3.53927 0.417019,-7.1083 1.158868,-10.64174 z m -12.486579,8.57945 c 0.171112,2.57416 0.139817,5.14119 -0.062,7.67099 -0.152795,1.08192 -0.271075,2.17082 -0.380465,3.25858 -0.32495,-3.59143 -0.222582,-7.27526 0.442467,-10.92957 z m -27.795364,0.73561 c 0.661023,3.34419 0.882861,6.71392 0.729366,10.02236 -0.02077,-0.12692 -0.04094,-0.25415 -0.06088,-0.38133 -0.01947,-1.65687 -0.142153,-3.30939 -0.554069,-4.94815 -0.104508,-1.55418 -0.145731,-3.12016 -0.114422,-4.69288 z m 9.609137,0.57015 c 0.123677,0.73408 0.226527,1.46891 0.309444,2.20375 -0.255029,1.49662 -0.408318,2.99816 -0.511231,4.50284 -0.119534,-2.21528 -0.06195,-4.46121 0.201787,-6.70659 z m -33.538413,1.35128 c 0.654573,4.23853 0.601962,8.49832 -0.02762,12.57732 -0.07311,-1.64052 -0.17571,-3.27709 -0.54787,-4.90262 -0.09463,-1.07432 -0.209732,-2.1464 -0.366937,-3.21553 0.233045,-1.49112 0.54699,-2.97971 0.942425,-4.45917 z m 45.964682,1.05422 c 0.01645,0.18823 0.03306,0.37644 0.04678,0.56462 -0.0954,0.62851 -0.170391,1.25773 -0.232787,1.88761 0.0391,-0.81664 0.09974,-1.63434 0.186005,-2.45223 z m -40.41722,0.0959 c 0.298039,1.74002 0.463031,3.48405 0.502777,5.21692 -0.08589,1.42165 -0.227155,2.83212 -0.421611,4.22729 -0.40131,-3.08949 -0.450412,-6.2647 -0.08117,-9.44421 z m -22.9440118,0.0855 c 0.0077,3.2877 -0.528266,6.51421 -1.300345,9.6644 0.0682,-3.20772 0.491008,-6.45653 1.300345,-9.6644 z m 59.3215388,0.51541 c -0.06136,1.24579 -0.101996,2.4931 -0.139786,3.7414 -0.04187,-0.67061 -0.11048,-1.33998 -0.218133,-2.00755 0.107233,-0.57884 0.22355,-1.15728 0.357919,-1.73385 z m -7.95651,0.31491 c 0.18335,2.20255 0.190889,4.39942 0.0434,6.56636 -0.181449,-2.16546 -0.204696,-4.36278 -0.0434,-6.56636 z m -48.174196,0.41209 c -0.0301,0.25626 -0.06103,0.51236 -0.08737,0.76882 -0.0058,-0.0234 -0.01049,-0.0467 -0.01635,-0.0701 0.03219,-0.23293 0.06724,-0.46578 0.103712,-0.69871 z m -0.105403,0.7104 c 0.0052,0.0318 0.0096,0.0635 0.01466,0.0953 -0.188621,1.84897 -0.286411,3.70361 -0.379901,5.56012 -0.01526,-1.87368 0.104418,-3.76376 0.365246,-5.65545 z m 50.729794,0.1759 c 0.08306,1.22584 0.103623,2.44887 0.06933,3.66513 -0.03348,0.22023 -0.06639,0.44038 -0.102585,0.65996 -0.07696,-1.43142 -0.06963,-2.87634 0.03326,-4.32509 z m -12.317484,0.21282 c 0.05824,0.46052 0.105332,0.92111 0.131894,1.38141 -0.04912,-0.4593 -0.09407,-0.91959 -0.131894,-1.38141 z m -25.429717,0.0351 c 0.01669,0.15257 0.03196,0.30507 0.04678,0.45761 -0.08287,0.35988 -0.156544,0.72077 -0.232788,1.08126 0.04825,-0.51292 0.110249,-1.02585 0.186005,-1.53887 z m 47.440321,0.20235 c 0.01117,0.61193 0.0066,1.22227 -0.009,1.83103 -0.01145,-0.60887 -0.0085,-1.21929 0.009,-1.83103 z m -4.652382,0.25586 c 0.135307,1.96558 -0.0053,3.92731 -0.300426,5.85905 -0.04556,-0.74294 -0.09171,-1.48639 -0.14655,-2.22897 0.09537,-1.20924 0.241775,-2.42092 0.446976,-3.63008 z m -39.956716,0.37581 c 0.110145,2.2883 0.0428,4.56509 -0.191641,6.80315 -0.02856,-0.3917 -0.05727,-0.78315 -0.08286,-1.17476 -0.07774,-1.86005 0.0083,-3.74444 0.274498,-5.62839 z m 56.913055,0.99147 c 0.08619,1.9644 -0.02098,3.91733 -0.285772,5.82091 -0.03383,-1.92452 0.05578,-3.87235 0.285772,-5.82091 z m -59.562218,0.5025 c 0.102261,2.12669 0.0286,4.24099 -0.204042,6.31787 -0.04134,-0.29999 -0.07927,-0.60073 -0.112167,-0.9029 -0.0076,-1.79392 0.09683,-3.60343 0.316209,-5.41497 z m -5.037356,0.10333 c -0.04288,0.74544 -0.103555,1.48733 -0.179242,2.22589 0.03204,-0.74048 0.09066,-1.48277 0.179242,-2.22589 z m 5.701337,2.75607 c 0.0319,0.32967 0.05617,0.65939 0.07328,0.9884 -0.02414,-0.32947 -0.04764,-0.65917 -0.07328,-0.9884 z m 65.465908,0.36904 c -0.123412,1.51509 -0.244887,3.03211 -0.426684,4.54712 0.09978,-1.52283 0.282876,-3.03438 0.426684,-4.54712 z" />
  </g>
</svg>
